<?xml version="1.0" standalone="no"?><!DOCTYPE svg PUBLIC "-//W3C//DTD SVG 1.1//EN" "http://www.w3.org/Graphics/SVG/1.1/DTD/svg11.dtd"><svg t="1744438612895" class="icon" viewBox="0 0 1024 1024" version="1.1" xmlns="http://www.w3.org/2000/svg" p-id="12466" xmlns:xlink="http://www.w3.org/1999/xlink" width="256" height="256"><path d="M511.997952 512m-512 0a512 512 0 1 0 1024 0 512 512 0 1 0-1024 0Z" fill="#E6F1FF" p-id="12467"></path><path d="M508.905472 746.47552c-135.258112 0-245.28896-106.747904-245.28896-237.953024 0-131.21536 110.030848-237.955072 245.28896-237.955072 135.262208 0 245.293056 106.74176 245.293056 237.955072 0 131.20512-110.030848 237.953024-245.291008 237.953024" fill="#FFDF44" p-id="12468"></path><path d="M508.905472 248.242176c-147.562496 0-268.302336 117.127168-268.302336 260.276224 0 143.1552 120.73984 260.276224 268.304384 260.276224 147.570688 0 268.302336-117.121024 268.302336-260.276224 0-143.149056-120.731648-260.276224-268.302336-260.276224m0 44.6464c122.564608 0 222.27968 96.731136 222.27968 215.629824s-99.715072 215.631872-222.27968 215.631872c-122.566656 0-222.281728-96.733184-222.281728-215.631872 0-118.898688 99.71712-215.631872 222.281728-215.631872" fill="#222222" p-id="12469"></path><path d="M356.022272 581.595136c-6.97344-10.305536-4.020224-24.14592 6.602752-30.916608 10.616832-6.7584 24.891392-3.899392 31.862784 6.406144 26.80832 39.593984 67.4304 61.403136 114.374656 61.403136 47.06304 0 87.709696-21.803008 114.450432-61.3888 6.9632-10.32192 21.231616-13.185024 31.854592-6.443008 10.62912 6.756352 13.606912 20.596736 6.63552 30.908416-35.008512 51.83488-90.75712 81.567744-152.940544 81.567744-62.959616 0-117.235712-28.95872-152.84224-81.537024zM242.812928 947.478528a513.26976 513.26976 0 0 1-44.15488-30.691328c85.180416-78.97088 196.007936-122.1632 313.87648-122.1632 118.011904 0 228.978688 43.30496 314.206208 121.403392a513.286144 513.286144 0 0 1-45.34272 31.58016c-73.701376-65.673216-167.979008-100.92544-268.865536-100.92544-100.816896 0-195.039232 35.20512-269.7216 100.796416z" fill="#222222" p-id="12470"></path></svg>