<?xml version="1.0" standalone="no"?><!DOCTYPE svg PUBLIC "-//W3C//DTD SVG 1.1//EN" "http://www.w3.org/Graphics/SVG/1.1/DTD/svg11.dtd"><svg t="1744376601917" class="icon" viewBox="0 0 1025 1024" version="1.1" xmlns="http://www.w3.org/2000/svg" p-id="1272" xmlns:xlink="http://www.w3.org/1999/xlink" width="200.1953125" height="200"><path d="M512.020417 1019.67022" fill="#d81e06" p-id="1273"></path><path d="M511.960441 601.619939c-90.888374 0-168.81293 59.488855-199.736467 139.808636L712.442146 741.428575C682.377419 659.837807 603.990918 601.619939 511.960441 601.619939z" fill="#d81e06" p-id="1274"></path><path d="M744.465674 755.238442l0.08167-0.978763C744.405698 754.3707 744.262775 754.490652 744.465674 755.238442z" fill="#d81e06" p-id="1275"></path><path d="M512.016589 0C229.233333 0 0 229.233333 0 512.017865 0 794.776876 229.233333 1024 512.016589 1024c282.774324 0 512.00638-229.223124 512.00638-511.982135C1024.024246 229.233333 794.790913 0 512.016589 0zM744.581798 754.229054c-0.417282 6.232433-4.944856 11.311279-10.913139 12.550365-0.820527 0.185033-1.669128 0.287121-2.540699 0.287121l-0.191414 0c-0.033178 0-0.066357 0.005104-0.099535 0.005104s-0.066357-0.005104-0.099535-0.005104L293.171921 767.066539c-0.030626 0-0.063805 0.005104-0.094431 0.005104-0.033178 0-0.065081-0.005104-0.099535-0.005104l-0.357306 0c-1.598943 0-3.122597-0.335612-4.519918-0.930271-5.156688-1.99198-8.811415-6.972567-8.811415-12.841313 0.367514-1.490475 0.456841-2.942668 0.876675-4.457389 0.137818-0.376447 0.195242-0.779692 0.341993-1.156139 22.524299-77.047881 82.249232-138.217349 158.597814-162.381427-58.7232-27.472984-99.489234-86.910796-99.489234-156.022661 0-95.155626 77.155073-172.345153 172.354086-172.345153 95.164559 0 172.346429 77.180594 172.346429 172.345153 0 69.111865-40.806869 128.549677-99.510928 156.0099 76.348582 24.164078 136.06841 85.346307 158.583777 162.39036 0.164616 0.367514 1.130617 5.244738 1.241637 5.617357C744.824256 753.982768 744.714512 754.123138 744.581798 754.229054z" fill="#d81e06" p-id="1276"></path><path d="M656.735627 429.274786c0-79.949714-64.824196-144.77391-144.77391-144.77391-79.954818 0-144.77391 64.824196-144.77391 144.77391 0 79.976512 64.819092 144.775186 144.77391 144.775186C591.911431 574.039763 656.735627 509.251298 656.735627 429.274786z" fill="#d81e06" p-id="1277"></path></svg>