<?xml version="1.0" standalone="no"?><!DOCTYPE svg PUBLIC "-//W3C//DTD SVG 1.1//EN" "http://www.w3.org/Graphics/SVG/1.1/DTD/svg11.dtd"><svg t="1744384592174" class="icon" viewBox="0 0 1024 1024" version="1.1" xmlns="http://www.w3.org/2000/svg" p-id="48281" xmlns:xlink="http://www.w3.org/1999/xlink" width="200" height="200"><path d="M704 0H192a64 64 0 0 0-64 64v320h576a64 64 0 0 1 64 64v416a64 64 0 0 1-64 64H128v32a64 64 0 0 0 64 64h768a64 64 0 0 0 64-64V320z" fill="#EAEAEA" p-id="48282"></path><path d="M704 0v256a64 64 0 0 0 64 64h256z" fill="#434854" p-id="48283"></path><path d="M768 320l256 256v-256h-256z" opacity=".1" p-id="48284"></path><path d="M704 832a32 32 0 0 1-32 32H32a32 32 0 0 1-32-32V480a32 32 0 0 1 32-32h640a32 32 0 0 1 32 32z" fill="#2C97FF" p-id="48285"></path><path d="M192 544H144a16 16 0 0 0-16 16v192a16 16 0 0 0 16 16H192a64 64 0 0 0 64-64v-96a64 64 0 0 0-64-64z m0 192H160v-160h32a32 32 0 0 1 32 32v96a32 32 0 0 1-32 32zM352 544a64 64 0 0 0-64 64v96a64 64 0 0 0 64 64 64 64 0 0 0 64-64v-96a64 64 0 0 0-64-64z m32 160a32 32 0 0 1-32 32 32 32 0 0 1-32-32v-96a32 32 0 0 1 32-32 32 32 0 0 1 32 32zM512 736a32 32 0 0 1-32-32v-96a32 32 0 0 1 32-32 32 32 0 0 1 32 32h32a64 64 0 0 0-64-64 64 64 0 0 0-64 64v96a64 64 0 0 0 64 64 64 64 0 0 0 64-64h-32a32 32 0 0 1-32 32z" fill="#FFFFFF" p-id="48286"></path></svg>