<?xml version="1.0" standalone="no"?><!DOCTYPE svg PUBLIC "-//W3C//DTD SVG 1.1//EN" "http://www.w3.org/Graphics/SVG/1.1/DTD/svg11.dtd"><svg t="1744384587987" class="icon" viewBox="0 0 1024 1024" version="1.1" xmlns="http://www.w3.org/2000/svg" p-id="48119" xmlns:xlink="http://www.w3.org/1999/xlink" width="200" height="200"><path d="M704 0H192a64 64 0 0 0-64 64v320h576a64 64 0 0 1 64 64v416a64 64 0 0 1-64 64H128v32a64 64 0 0 0 64 64h768a64 64 0 0 0 64-64V320z" fill="#EAEAEA" p-id="48120"></path><path d="M704 0v256a64 64 0 0 0 64 64h256z" fill="#434854" p-id="48121"></path><path d="M768 320l256 256v-256h-256z" opacity=".1" p-id="48122"></path><path d="M704 832a32 32 0 0 1-32 32H32a32 32 0 0 1-32-32V480a32 32 0 0 1 32-32h640a32 32 0 0 1 32 32z" fill="#CC7598" p-id="48123"></path><path d="M288 672H208a16 16 0 0 0 0 32H256a32 32 0 0 1-32 32H192a32 32 0 0 1-32-32v-96a32 32 0 0 1 32-32h32a32 32 0 0 1 32 32 16 16 0 0 0 32 0 64 64 0 0 0-64-64H192a64 64 0 0 0-64 64v96a64 64 0 0 0 64 64h32a64 64 0 0 0 64-64 16 16 0 0 0 0-32zM384 752a16 16 0 0 1-16 16 16 16 0 0 1-16-16v-192a16 16 0 0 1 16-16 16 16 0 0 1 16 16zM560 544h-96a16 16 0 0 0-16 16v192a16 16 0 0 0 32 0V672h48a16 16 0 0 0 0-32H480v-64h80a16 16 0 0 0 0-32z" fill="#FFFFFF" p-id="48124"></path></svg>