<?xml version="1.0" standalone="no"?><!DOCTYPE svg PUBLIC "-//W3C//DTD SVG 1.1//EN" "http://www.w3.org/Graphics/SVG/1.1/DTD/svg11.dtd"><svg t="1744376718705" class="icon" viewBox="0 0 1024 1024" version="1.1" xmlns="http://www.w3.org/2000/svg" p-id="1758" xmlns:xlink="http://www.w3.org/1999/xlink" width="200" height="200"><path d="M771.845 623.884m-20.735 0a20.735 20.735 0 1 0 41.47 0 20.735 20.735 0 1 0-41.47 0Z" fill="#22AB39" p-id="1759"></path><path d="M633.613 623.884m-20.735 0a20.735 20.735 0 1 0 41.47 0 20.735 20.735 0 1 0-41.47 0Z" fill="#22AB39" p-id="1760"></path><path d="M702.729 623.884m-20.735 0a20.735 20.735 0 1 0 41.47 0 20.735 20.735 0 1 0-41.47 0Z" fill="#22AB39" p-id="1761"></path><path d="M512 0C229.23 0 0 229.23 0 512s229.23 512 512 512 512-229.23 512-512S794.77 0 512 0z m-38.738 740.38c-61.661 0-118.578-17.859-164.422-48.014-3.859-2.538-68.766 23.143-72.991 21.364l-4.492-4.492c-3.801-9.331 24.174-62.813 18.341-69.98-32.204-39.563-51.157-88.031-51.157-140.391 0-133.384 122.997-241.513 274.721-241.513 133.568 0 244.826 83.812 269.552 194.869-18.325-5.22-37.825-8.059-58.058-8.059-105.751 0-191.784 76.984-191.784 171.608 0 44.922 19.415 85.847 51.099 116.467-22.596 5.286-46.319 8.141-70.809 8.141z m372.282 7.346l-2.729 2.729c-2.567 1.081-42-14.521-44.344-12.979-27.852 18.32-62.43 29.17-99.891 29.17-92.177 0-166.901-65.692-166.901-146.726s74.724-146.726 166.901-146.726 166.901 65.691 166.901 146.726c0 31.81-11.514 61.256-31.079 85.291-3.545 4.354 13.451 36.847 11.142 42.515z" fill="#22AB39" p-id="1762"></path></svg>