<?xml version="1.0" standalone="no"?><!DOCTYPE svg PUBLIC "-//W3C//DTD SVG 1.1//EN" "http://www.w3.org/Graphics/SVG/1.1/DTD/svg11.dtd"><svg t="1744384596393" class="icon" viewBox="0 0 1024 1024" version="1.1" xmlns="http://www.w3.org/2000/svg" p-id="48443" xmlns:xlink="http://www.w3.org/1999/xlink" width="200" height="200"><path d="M704 0H192a64 64 0 0 0-64 64v320h576a64 64 0 0 1 64 64v416a64 64 0 0 1-64 64H128v32a64 64 0 0 0 64 64h768a64 64 0 0 0 64-64V320z" fill="#EAEAEA" p-id="48444"></path><path d="M704 0v256a64 64 0 0 0 64 64h256z" fill="#434854" p-id="48445"></path><path d="M768 320l256 256v-256h-256z" opacity=".1" p-id="48446"></path><path d="M704 832a32 32 0 0 1-32 32H32a32 32 0 0 1-32-32V480a32 32 0 0 1 32-32h640a32 32 0 0 1 32 32z" fill="#BAF1CD" p-id="48447"></path><path d="M160 544H112a16 16 0 0 0-16 16v192a16 16 0 0 0 32 0V672h32a64 64 0 0 0 0-128z m0 96H128v-64h32a32 32 0 0 1 0 64zM608 672h-80a16 16 0 0 0 0 32H576a32 32 0 0 1-32 32h-32a32 32 0 0 1-32-32v-96a32 32 0 0 1 32-32h32a32 32 0 0 1 32 32 16 16 0 0 0 32 0 64 64 0 0 0-64-64h-32a64 64 0 0 0-64 64v96a64 64 0 0 0 64 64h32a64 64 0 0 0 64-64 16 16 0 0 0 0-32zM400 544a16 16 0 0 0-16 16v137.6l-98.88-146.56a7.36 7.36 0 0 0-2.24-2.24l-2.56-1.6h-16l-2.56 2.24v5.12a13.76 13.76 0 0 0 0 3.52v192a16 16 0 0 0 32 0v-137.6l96 142.08a15.68 15.68 0 0 0 32-3.2v-192a16 16 0 0 0-21.76-15.36z" fill="#FFFFFF" p-id="48448"></path></svg>