<?xml version="1.0" standalone="no"?><!DOCTYPE svg PUBLIC "-//W3C//DTD SVG 1.1//EN" "http://www.w3.org/Graphics/SVG/1.1/DTD/svg11.dtd"><svg t="1744376761165" class="icon" viewBox="0 0 1024 1024" version="1.1" xmlns="http://www.w3.org/2000/svg" p-id="2081" xmlns:xlink="http://www.w3.org/1999/xlink" width="200" height="200"><path d="M756.1728 268.4928l144.3328 244.8384a67.4816 67.4816 0 0 1 0.6144 67.4304l-139.9296 247.3984a67.3792 67.3792 0 0 1-58.0608 34.2528l-284.2112 2.56a67.4816 67.4816 0 0 1-58.6752-33.1776l-144.3328-244.8896a67.3792 67.3792 0 0 1-0.6144-67.3792l139.8784-247.4496a67.4816 67.4816 0 0 1 58.112-34.2016l284.2112-2.56a67.4816 67.4816 0 0 1 58.6752 33.1776z" fill="#9FA7FF" p-id="2082"></path><path d="M764.0064 323.9936l126.5152 214.6304a67.2768 67.2768 0 0 1 0.6144 67.3792l-122.88 216.8832a67.4304 67.4304 0 0 1-58.0608 34.2528l-249.1392 2.2016a67.2768 67.2768 0 0 1-58.6752-33.1776l-126.2592-214.5792a67.4816 67.4816 0 0 1-0.6144-67.4304l122.88-216.8832a67.4816 67.4816 0 0 1 58.112-34.2016l249.088-2.2528a67.4304 67.4304 0 0 1 58.4192 33.1776z" fill="#8891FF" p-id="2083"></path><path d="M768 388.2496l107.52 182.5792a67.4816 67.4816 0 0 1 0.6144 67.4304l-104.3456 184.32a67.3792 67.3792 0 0 1-58.0608 34.2016l-211.968 2.0992a67.4816 67.4816 0 0 1-58.6752-33.1776l-107.52-182.5792a67.4816 67.4816 0 0 1-0.6144-67.4304l104.2944-184.32a67.5328 67.5328 0 0 1 58.112-34.2528l211.9168-1.8944A67.4816 67.4816 0 0 1 768 388.2496z" fill="#6E75FF" p-id="2084"></path><path d="M349.0304 896.3072a98.4064 98.4064 0 0 1-84.5824-48.2816L96.6656 563.2a98.4064 98.4064 0 0 1-0.8704-98.1504l162.6112-287.488A98.4064 98.4064 0 0 1 343.04 128l330.4448-3.0208h0.8704a98.4064 98.4064 0 0 1 84.4288 48.0768L926.72 457.728a98.4064 98.4064 0 0 1 0.8704 98.0992l-162.6624 287.6416a98.304 98.304 0 0 1-84.5312 49.8688l-330.3936 2.9696z m325.2224-710.144h-0.3072l-330.4448 2.9696a36.8128 36.8128 0 0 0-31.5904 18.6368L149.248 495.4624a36.7616 36.7616 0 0 0 0.3584 36.6592L317.44 816.7936a36.864 36.864 0 0 0 31.9488 18.0736l330.3936-2.9696a36.8128 36.8128 0 0 0 31.6416-18.6368l162.6112-287.6416a36.864 36.864 0 0 0-0.3072-36.7104l-167.7824-284.672a36.864 36.864 0 0 0-31.6928-18.0736z" fill="#2E3138" p-id="2085"></path><path d="M511.6416 646.5024a135.9872 135.9872 0 1 1 135.9872-135.9872 136.0896 136.0896 0 0 1-135.9872 135.9872z m0-210.5344a74.5472 74.5472 0 1 0 74.5472 74.5472 74.5984 74.5984 0 0 0-74.5472-74.5472z" fill="#2E3138" p-id="2086"></path></svg>