<?xml version="1.0" standalone="no"?><!DOCTYPE svg PUBLIC "-//W3C//DTD SVG 1.1//EN" "http://www.w3.org/Graphics/SVG/1.1/DTD/svg11.dtd"><svg t="1744387111996" class="icon" viewBox="0 0 1024 1024" version="1.1" xmlns="http://www.w3.org/2000/svg" p-id="76488" width="256" height="256" xmlns:xlink="http://www.w3.org/1999/xlink"><path d="M103 511c0 226.4 183.6 410 410 410s410-183.6 410-410-183.6-410-410-410-410 183.6-410 410z m0 0" fill="#FFD73A" p-id="76489"></path><path d="M267 371.6c0 40.8 33 73.8 73.8 73.8s73.8-33 73.8-73.8-33-73.8-73.8-73.8-73.8 33-73.8 73.8z m344.4 0c0 40.8 33 73.8 73.8 73.8s73.8-33 73.8-73.8c0-26.4-14.1-50.7-36.9-63.9-22.8-13.2-51-13.2-73.8 0-22.8 13.2-36.9 37.5-36.9 63.9zM513 724.2c-107.4 0-196.8-77.9-213.2-180.4-2.5-17.2 10.7-32.8 28.7-32.8h369c18 0 31.2 15.6 28.7 32.8C709.8 646.3 620.4 724.2 513 724.2z m0 0" fill="#873A18" p-id="76490"></path><path d="M697.5 511h-369c-18 0-31.2 15.6-28.7 32.8 0.8 5.7 1.6 11.5 3.3 17.2h419c1.6-5.7 2.5-11.5 3.3-17.2 3.3-17.2-10.7-32.8-27.9-32.8z m0 0" fill="#FFFFFF" p-id="76491"></path><path d="M573.7 610.2c-24.6 0-46.7 12.3-60.7 31.2-13.1-18.9-35.3-31.2-60.7-31.2-38.5 0-70.5 29.5-73.8 67.2 36.9 29.5 83.6 46.7 134.5 46.7 50.8 0 97.6-17.2 134.5-46.7-3.3-37.7-35.3-67.2-73.8-67.2z m0 0" fill="#F44444" p-id="76492"></path></svg>