<?xml version="1.0" standalone="no"?><!DOCTYPE svg PUBLIC "-//W3C//DTD SVG 1.1//EN" "http://www.w3.org/Graphics/SVG/1.1/DTD/svg11.dtd"><svg t="1744384664679" class="icon" viewBox="0 0 1024 1024" version="1.1" xmlns="http://www.w3.org/2000/svg" p-id="51063" xmlns:xlink="http://www.w3.org/1999/xlink" width="200" height="200"><path d="M704.160176 0h-511.744128c-35.310345 0-63.968016 28.657671-63.968016 63.968016v319.84008h575.712144c35.310345 0 63.968016 28.657671 63.968016 63.968016v416.047976c0 35.310345-28.657671 63.968016-63.968016 63.968016H128.448032v32.23988c0 35.310345 28.657671 63.968016 63.968016 63.968016h767.616192c35.310345 0 63.968016-28.657671 63.968016-63.968016v-639.68016l-319.84008-320.351824z" fill="#EAEAEA" p-id="51064"></path><path d="M704.160176 0v255.872064c0 35.310345 28.657671 63.968016 63.968016 63.968016H1024.000256l-319.84008-319.84008z" fill="#434854" p-id="51065"></path><path d="M768.128192 319.84008l255.872064 255.872064v-255.872064h-255.872064z" opacity=".1" p-id="51066"></path><path d="M704.160176 831.584208c0 17.911044-14.328836 32.23988-32.23988 32.23988h-639.68016c-17.911044 0-32.23988-14.328836-32.23988-32.23988v-352.07996c0-17.911044 14.328836-32.23988 32.23988-32.23988h639.68016c17.911044 0 32.23988 14.328836 32.23988 32.23988v352.07996z" fill="#FFB929" p-id="51067"></path><path d="M225.679416 560.35982c12.281859 10.746627 17.911044 25.587206 17.911045 44.009995 0 14.84058-3.582209 27.634183-11.258371 37.357321-3.070465 3.582209-11.770115 11.770115-26.098951 24.051974-5.629185 5.117441-9.723138 10.234883-12.793603 15.864068-3.070465 6.14093-5.117441 12.793603-5.117441 20.469766v5.117441h-32.751624v-5.117441c0-11.770115 2.046977-21.493253 5.629185-29.169416 4.093953-8.187906 15.864068-20.981509 34.798601-37.869065l5.117441-5.629186c5.629185-7.164418 8.187906-14.84058 8.187906-22.516741 0-10.234883-3.070465-18.934533-8.69965-25.075463-6.14093-6.14093-14.84058-9.211394-25.587206-9.211394-13.817091 0-24.051974 4.093953-30.192904 12.793603-5.629185 7.164418-8.187906 17.911044-8.187906 31.728136h-32.751624c0-22.516742 6.652674-39.916042 19.446277-52.709645 12.793603-13.305347 30.704648-19.446277 53.221389-19.446277 20.981509-1.023488 36.845577 4.605697 49.127436 15.352324z m-37.357321 169.387306c4.093953 4.093953 6.652674 9.211394 6.652674 15.864068 0 6.14093-2.046977 11.770115-6.652674 15.864068-4.605697 4.093953-10.234883 6.14093-16.375812 6.14093-6.14093 0-11.770115-2.046977-15.864068-6.652674-4.605697-4.093953-6.652674-9.723138-6.652674-15.864068 0-6.652674 2.046977-11.770115 6.652674-15.864068 4.093953-4.093953 9.211394-6.14093 15.864068-6.140929 7.164418 0.511744 12.281859 2.558721 16.375812 6.652673zM395.578467 560.35982c12.281859 10.746627 17.911044 25.587206 17.911044 44.009995 0 14.84058-3.582209 27.634183-11.258371 37.357321-3.070465 3.582209-11.770115 11.770115-26.09895 24.051974-5.629185 5.117441-9.723138 10.234883-12.793603 15.864068-3.070465 6.14093-5.117441 12.793603-5.117442 20.469766v5.117441h-32.751624v-5.117441c0-11.770115 2.046977-21.493253 5.629186-29.169416 4.093953-8.187906 15.864068-20.981509 34.7986-37.869065l5.117442-5.629186c5.629185-7.164418 8.187906-14.84058 8.187906-22.516741 0-10.234883-3.070465-18.934533-8.699651-25.075463-6.14093-6.14093-14.84058-9.211394-25.587206-9.211394-13.817091 0-24.051974 4.093953-30.192903 12.793603-5.629185 7.164418-8.187906 17.911044-8.187906 31.728136h-32.751625c0-22.516742 6.652674-39.916042 19.446277-52.709645 12.793603-13.305347 30.704648-19.446277 53.221389-19.446277 20.981509-1.023488 36.845577 4.605697 49.127437 15.352324z m-37.357322 169.387306c4.093953 4.093953 6.652674 9.211394 6.652674 15.864068 0 6.14093-2.046977 11.770115-6.652674 15.864068-4.605697 4.093953-10.234883 6.14093-16.375812 6.14093-6.14093 0-11.770115-2.046977-15.864068-6.652674-4.605697-4.093953-6.652674-9.723138-6.652673-15.864068 0-6.652674 2.046977-11.770115 6.652673-15.864068 4.093953-4.093953 9.211394-6.14093 15.864068-6.140929 6.652674 0.511744 12.281859 2.558721 16.375812 6.652673zM564.965773 560.35982c12.281859 10.746627 17.911044 25.587206 17.911045 44.009995 0 14.84058-3.582209 27.634183-11.258371 37.357321-3.070465 3.582209-11.770115 11.770115-26.098951 24.051974-5.629185 5.117441-9.723138 10.234883-12.793603 15.864068-3.070465 6.14093-5.117441 12.793603-5.117441 20.469766v5.117441h-32.751624v-5.117441c0-11.770115 2.046977-21.493253 5.629185-29.169416 4.093953-8.187906 15.864068-20.981509 34.798601-37.869065l5.117441-5.629186c5.629185-7.164418 8.187906-14.84058 8.187906-22.516741 0-10.234883-3.070465-18.934533-8.69965-25.075463-6.14093-6.14093-14.84058-9.211394-25.587207-9.211394-13.817091 0-24.051974 4.093953-30.192903 12.793603-5.629185 7.164418-8.187906 17.911044-8.187906 31.728136h-32.751624c0-22.516742 6.652674-39.916042 19.446277-52.709645 12.793603-13.305347 30.704648-19.446277 53.221389-19.446277 20.981509-1.023488 37.357321 4.605697 49.127436 15.352324z m-36.845577 169.387306c4.093953 4.093953 6.652674 9.211394 6.652674 15.864068 0 6.14093-2.046977 11.770115-6.652674 15.864068-4.605697 4.093953-10.234883 6.14093-16.375812 6.14093-6.14093 0-11.770115-2.046977-15.864068-6.652674-4.605697-4.093953-6.652674-9.723138-6.652674-15.864068 0-6.652674 2.046977-11.770115 6.652674-15.864068 4.093953-4.093953 9.211394-6.14093 15.864068-6.140929 6.652674 0.511744 12.281859 2.558721 16.375812 6.652673z" fill="#FFFFFF" p-id="51068"></path></svg>