<svg t="1734432993753" class="icon" viewBox="0 0 1554 1024" version="1.1" xmlns="http://www.w3.org/2000/svg" p-id="1038" width="200" height="200"><path d="M0 726.857143c0-164.109714 133.037714-297.142857 297.142857-297.142857h960c164.109714 0 297.142857 133.033143 297.142857 297.142857s-133.033143 297.142857-297.142857 297.142857H297.142857c-164.105143 0-297.142857-133.033143-297.142857-297.142857z" fill="#FFEFE4" p-id="1039"></path><path d="M1085.942857 263.579429c84.452571 0 152.914286 68.32 152.914286 152.594285v95.753143c0 14.793143-3.232 29.408-9.472 42.825143a101.732571 101.732571 0 0 1-26.660572 34.866286c-18.386286 15.510857-27.584 33.568-27.584 54.171428s9.197714 38.660571 27.584 54.171429a101.732571 101.732571 0 0 1 26.660572 34.866286 101.549714 101.549714 0 0 1 9.472 42.825142v95.753143c0 84.274286-68.461714 152.594286-152.914286 152.594286H372.342857C287.890286 1024 219.428571 955.68 219.428571 871.405714v-95.753143c0-14.793143 3.232-29.408 9.472-42.825142a101.76 101.76 0 0 1 26.660572-34.866286c18.386286-15.510857 27.579429-33.568 27.579428-54.171429s-9.188571-38.660571-27.579428-54.171428a101.76 101.76 0 0 1-26.660572-34.866286A101.536 101.536 0 0 1 219.428571 511.926857V416.173714c0-84.274286 68.461714-152.594286 152.914286-152.594285h713.6zM902.432 36.635429c82.189714-29.851429 174.098286 15.286857 205.289143 100.8l15.574857 42.706285a10.171429 10.171429 0 0 1-9.581714 13.650286H527.542857a10.194286 10.194286 0 0 1-10.038857-8.402286 10.162286 10.162286 0 0 1 6.555429-11.328l378.372571-137.426285z" fill="#FFD5A2" p-id="1040"></path><path d="M1154.514286 263.579429c84.452571 0 152.914286 68.32 152.914285 152.594285v95.753143c0 14.793143-3.232 29.408-9.472 42.825143a101.732571 101.732571 0 0 1-26.660571 34.866286c-18.386286 15.510857-27.584 33.568-27.584 54.171428s9.197714 38.660571 27.584 54.171429a101.732571 101.732571 0 0 1 26.660571 34.866286 101.549714 101.549714 0 0 1 9.472 42.825142v95.753143c0 84.274286-68.461714 152.594286-152.914285 152.594286H440.914286C356.461714 1024 288 955.68 288 871.405714v-95.753143c0-14.793143 3.232-29.408 9.472-42.825142a101.76 101.76 0 0 1 26.660571-34.866286c18.386286-15.510857 27.584-33.568 27.584-54.171429s-9.197714-38.660571-27.584-54.171428a101.76 101.76 0 0 1-26.660571-34.866286A101.536 101.536 0 0 1 288 511.926857V416.173714c0-84.274286 68.461714-152.594286 152.914286-152.594285h713.6z m-514.811429 250.505142c-25.083429 0-45.462857 20.091429-45.869714 45.024l-0.004572 0.754286v167.853714c0 25.28 20.539429 45.778286 45.874286 45.778286 25.083429 0 45.462857-20.086857 45.869714-45.024l0.004572-0.754286V559.862857c0-25.28-20.539429-45.778286-45.874286-45.778286z m331.300572-459.163428c82.189714-29.851429 174.098286 15.286857 205.289142 100.8l15.574858 42.706286a10.171429 10.171429 0 0 1-9.581715 13.650285H596.114286a10.194286 10.194286 0 0 1-10.038857-8.402285 10.162286 10.162286 0 0 1 6.555428-11.328l378.372572-137.426286z" fill="#FFA735" p-id="1041"></path><path d="M1334.857143 757.558857c0 125.522286-99.309714 225.261714-224.283429 225.261714-24.032 0-72.091429 2.011429-190.24-24.132571 22.029714-4.022857 69.371429-7.204571 58.075429-15.195429C920.269714 902.358857 882.285714 834.413714 882.285714 757.558857 882.285714 632.041143 983.597714 530.285714 1108.571429 530.285714s226.285714 101.755429 226.285714 227.273143z" fill="#000000" opacity=".1" p-id="1042"></path><path d="M1366.857143 752.987429c0 125.522286-99.309714 225.261714-224.283429 225.261714-24.032 0-72.091429 2.011429-190.24-24.132572 22.029714-4.022857 69.371429-7.204571 58.075429-15.195428C952.269714 897.787429 914.285714 829.842286 914.285714 752.987429 914.285714 627.469714 1015.597714 525.714286 1140.571429 525.714286s226.285714 101.755429 226.285714 227.273143z" fill="#FFFFFF" p-id="1043"></path><path d="M1110.381714 834.848H1047.725714c-5.846857-0.429714-10.336-2.857143-13.472-7.277714A31.561143 31.561143 0 0 1 1028.571429 812.845714c0.649143-5.389714 2.541714-9.814857 5.682285-13.266285 3.136-3.451429 7.625143-5.389714 13.472-5.819429h62.656v-20.388571l-62.656-0.32c-5.846857-0.434286-10.336-2.482286-13.472-6.148572-3.140571-3.666286-5.033143-8.306286-5.682285-13.910857 0.649143-5.394286 2.541714-9.814857 5.682285-13.266286 3.136-3.451429 7.625143-5.394286 13.472-5.824h46.747429l-43.501714-76.356571c-2.166857-2.587429-4.219429-5.878857-6.166858-9.869714-1.952-3.990857-2.816-8.356571-2.596571-13.101715 1.078857-6.038857 3.245714-10.948571 6.491429-14.72 3.245714-3.776 9.307429-6.203429 18.180571-7.282285a26.194286 26.194286 0 0 1 13.956571 5.339428c4.114286 3.126857 7.469714 6.523429 10.066286 10.189714l49.344 89.947429 54.212572-90.592c2.601143-3.670857 5.952-6.902857 10.066285-9.709714a31.222857 31.222857 0 0 1 13.956572-5.174857 53.485714 53.485714 0 0 1 8.932571 1.293714 19.643429 19.643429 0 0 1 7.140572 3.236571c2.052571 1.508571 3.785143 3.666286 5.193142 6.468572 1.408 2.806857 2.436571 6.473143 3.085715 11.003428 0 6.253714-2.166857 12.187429-6.496 17.792l-50.317715 81.536h47.721143c5.627429 0.429714 10.066286 2.372571 13.312 5.824s5.088 7.872 5.517715 13.266286c-0.429714 5.604571-2.326857 10.349714-5.682286 14.235429-3.355429 3.881143-7.844571 6.038857-13.472 6.468571l-62.002286 0.324571v19.739429h62.326857c5.627429 0.429714 10.066286 2.587429 13.312 6.468571 3.245714 3.881143 5.088 8.521143 5.517715 13.915429-0.429714 5.604571-2.272 10.299429-5.517715 14.070857-3.245714 3.776-7.684571 5.878857-13.312 6.308572l-62.326857-0.32v34.294857c-0.868571 18.336-10.930286 27.501714-30.194286 27.501714-9.522286 0-16.937143-2.262857-22.235428-6.797714-5.302857-4.530286-8.173714-11.428571-8.603429-20.704v-33.650286z" fill="#FFA735" p-id="1044"></path></svg>