<?xml version="1.0" standalone="no"?><!DOCTYPE svg PUBLIC "-//W3C//DTD SVG 1.1//EN" "http://www.w3.org/Graphics/SVG/1.1/DTD/svg11.dtd"><svg t="1746020169220" class="icon" viewBox="0 0 1051 1024" version="1.1" xmlns="http://www.w3.org/2000/svg" p-id="1743" xmlns:xlink="http://www.w3.org/1999/xlink" width="131.375" height="128"><path d="M0 211.843084m102.581171-33.625823l441.099037-144.591038q102.581171-33.625823 136.206994 68.955348l152.141477 464.132907q33.625823 102.581171-68.955348 136.206994l-441.099037 144.591038q-102.581171 33.625823-136.206994-68.955348l-152.141477-464.132906q-33.625823-102.581171 68.955348-136.206995Z" fill="#0F62FE" p-id="1744"></path><path d="M239.036145 211.277108m154.216867 0l504.289157 0q154.216867 0 154.216867 154.216868l0 504.289157q0 154.216867-154.216867 154.216867l-504.289157 0q-154.216867 0-154.216867-154.216867l0-504.289157q0-154.216867 154.216867-154.216868Z" fill="#C1D0FF" fill-opacity=".4" p-id="1745"></path><path d="M627.80453 641.51441C617.356337 686.596627 576.999325 720.192771 528.808096 720.192771 472.680867 720.192771 427.180723 674.621687 427.180723 618.409639s45.500145-101.783133 101.627373-101.783133c48.191229 0 88.548241 33.596145 98.996434 78.678361h224.587566c6.197976 0 11.222361 5.032096 11.222362 11.240868v23.727807c0 6.208771-5.024386 11.240867-11.222362 11.240868h-7.482602v49.953927a4.990458 4.990458 0 0 1-4.987374 4.995085h-21.19865a4.990458 4.990458 0 0 1-4.987374-4.995085v-49.182843a0.771084 0.771084 0 0 0-0.771084-0.771084h-38.359904a0.771084 0.771084 0 0 0-0.771084 0.771084v49.182843a4.990458 4.990458 0 0 1-4.987373 4.995085h-21.198651a4.990458 4.990458 0 0 1-4.987373-4.995085v-49.182843a0.771084 0.771084 0 0 0-0.771085-0.771084h-114.085012zM586.790554 618.409639c0 32.072482-25.959325 58.071904-57.982458 58.071903-32.024675 0-57.984-25.999422-57.984-58.071903 0-32.072482 25.959325-58.071904 57.984-58.071904 32.023133 0 57.982458 25.999422 57.982458 58.071904z" fill="#FFFFFF" p-id="1746"></path></svg>