<?xml version="1.0" standalone="no"?><!DOCTYPE svg PUBLIC "-//W3C//DTD SVG 1.1//EN" "http://www.w3.org/Graphics/SVG/1.1/DTD/svg11.dtd"><svg t="1746020113103" class="icon" viewBox="0 0 1094 1024" version="1.1" xmlns="http://www.w3.org/2000/svg" p-id="1573" xmlns:xlink="http://www.w3.org/1999/xlink" width="136.75" height="128"><path d="M0 587.479879m120.24442 0l456.928794 0q120.24442 0 120.24442 120.244419l0 39.508881q0 120.24442-120.24442 120.24442l-456.928794 0q-120.24442 0-120.24442-120.24442l0-39.508881q0-120.24442 120.24442-120.244419Z" fill="#0F62FE" p-id="1574"></path><path d="M348.708817 269.691055m-221.593288 0a221.593288 221.593288 0 1 0 443.186575 0 221.593288 221.593288 0 1 0-443.186575 0Z" fill="#0F62FE" p-id="1575"></path><path d="M223.311065 669.933195m171.777742 0l527.357669 0q171.777742 0 171.777742 171.777742l0 10.306665q0 171.777742-171.777742 171.777742l-527.357669 0q-171.777742 0-171.777742-171.777742l0-10.306665q0-171.777742 171.777742-171.777742Z" fill="#C1D0FF" fill-opacity=".4" p-id="1576"></path><path d="M659.62653 269.691055m-269.691055 0a269.691055 269.691055 0 1 0 539.382111 0 269.691055 269.691055 0 1 0-539.382111 0Z" fill="#C1D0FF" fill-opacity=".4" p-id="1577"></path><path d="M771.347338 388.068251c6.707921 6.707921 6.707921 17.584887 0 24.292808-61.716307 61.718025-161.77856 61.718025-223.494867 0-6.709639-6.707921-6.709639-17.584887 0-24.292808 6.707921-6.707921 17.58317-6.707921 24.292809 0 48.298748 48.300466 126.608785 48.300466 174.90925 0 6.707921-6.707921 17.584887-6.707921 24.292808 0z" fill="#FFFFFF" p-id="1578"></path></svg>